<svg width="37" height="36" viewBox="0 0 37 36" fill="none" xmlns="http://www.w3.org/2000/svg">
<path d="M20.3187 24.8329C20.1728 23.5547 19.4609 22.4272 18.3666 21.7467L14.5101 19.341C11.8536 17.6836 10.1279 14.9515 9.7732 11.8451C9.4185 8.73884 10.4851 5.69029 12.7014 3.47796L16.1855 0H8.20848C7.57203 0 6.95822 0.253627 6.50792 0.703125L0.704375 6.49637C0.254078 6.94587 0 7.55608 0 8.19392V33.5993C0 34.9252 1.07669 36 2.40494 36H11.3782L19.1137 28.2782C20.0269 27.3666 20.4646 26.111 20.3187 24.8329Z" fill="url(#paint0_linear_2641_452)"/>
<path d="M33.659 0H24.6858L16.9502 7.72182C16.0396 8.63086 15.5993 9.88895 15.7452 11.1671C15.8911 12.4453 16.6006 13.5703 17.6948 14.2533L21.5513 16.659C24.1977 18.3089 25.9209 21.0259 26.2857 24.1197C26.6555 27.2637 25.4933 30.3926 23.2519 32.63L19.8784 35.9975H27.8555C28.4919 35.9975 29.1057 35.7439 29.556 35.2944L35.3596 29.5011C35.8099 29.0516 36.0639 28.4414 36.0639 27.8036V2.40067C36.0639 1.07478 34.9873 0 33.659 0Z" fill="url(#paint1_linear_2641_452)"/>
<defs>
<linearGradient id="paint0_linear_2641_452" x1="10.1732" y1="36" x2="10.1732" y2="0" gradientUnits="userSpaceOnUse">
<stop offset="0.2" stop-color="white"/>
<stop offset="1" stop-color="white" stop-opacity="0"/>
</linearGradient>
<linearGradient id="paint1_linear_2641_452" x1="25.8908" y1="36" x2="25.8908" y2="0" gradientUnits="userSpaceOnUse">
<stop stop-color="white" stop-opacity="0"/>
<stop offset="0.8" stop-color="white"/>
</linearGradient>
</defs>
</svg>
